<svg xmlns="http://www.w3.org/2000/svg" xmlns:xlink="http://www.w3.org/1999/xlink" version="1.1" x="0px" y="0px" viewBox="0 -12 100 125" style="enable-background:new 0 0 100 100;" xml:space="preserve"><g><path d="M91,50.2L66.2,32.7V10.5H34.8v22.2L10,50.2H9.3v16.4h82.5V50.2H91z M37,12.7H64v19.4H37V12.7z M36.3,34.4h28.4l22.4,15.8   H13.9L36.3,34.4z M89.5,64.4H11.5V52.4h78.1V64.4z"></path><rect x="72.9" y="58.4" width="2.2" height="4"></rect><rect x="80.1" y="58.4" width="2.2" height="4"></rect><path d="M32.1,82.4c-0.1,0-2-0.5-1.6-3c0.4-2.8,2.8-3.6,2.9-3.6l-0.6-2.1c-0.2,0-3.9,1.2-4.4,5.5c-0.5,3.6,2,5.2,3.3,5.5   c0.1,0,1.1,0.5,0.8,2.8c-0.2,1.3-0.7,2.4-1.7,3.2c-0.8,0.7-1.9,0.9-2.9,0.8l-0.3,2.2c0.3,0,0.5,0.1,0.8,0.1c1.4,0,2.7-0.5,3.8-1.3   c1.4-1.1,2.2-2.7,2.5-4.6C35.1,83.2,32.2,82.4,32.1,82.4z"></path><path d="M45.2,82.4c-0.1,0-2-0.5-1.6-3c0.4-2.8,2.8-3.6,2.9-3.6l-0.6-2.1c-0.2,0-3.9,1.2-4.4,5.5c-0.5,3.6,2,5.2,3.3,5.5   c0.1,0,1.1,0.5,0.8,2.8c-0.2,1.3-0.7,2.4-1.7,3.2c-0.8,0.7-1.9,0.9-2.9,0.8l-0.3,2.2c0.3,0,0.5,0.1,0.8,0.1c1.4,0,2.7-0.5,3.8-1.3   c1.4-1.1,2.2-2.7,2.5-4.6C48.3,83.2,45.4,82.4,45.2,82.4z"></path><path d="M57.6,82.4c-0.1,0-2-0.5-1.6-3c0.4-2.8,2.8-3.6,2.9-3.6l-0.6-2.1c-0.2,0-3.9,1.2-4.4,5.5c-0.5,3.6,2,5.2,3.3,5.5   c0.1,0,1.1,0.5,0.8,2.8c-0.2,1.3-0.7,2.4-1.7,3.2c-0.8,0.7-1.9,0.9-2.9,0.8L53,93.5c0.3,0,0.5,0.1,0.8,0.1c1.4,0,2.7-0.5,3.8-1.3   c1.4-1.1,2.2-2.7,2.5-4.6C60.7,83.2,57.8,82.4,57.6,82.4z"></path><path d="M70.8,82.4c-0.1,0-2-0.5-1.6-3c0.4-2.8,2.8-3.6,2.9-3.6l-0.6-2.1c-0.2,0-3.9,1.2-4.4,5.5c-0.5,3.6,2,5.2,3.3,5.5   c0.1,0,1.1,0.5,0.8,2.8c-0.4,3-2.6,4.2-4.6,4l-0.3,2.2c0.3,0,0.5,0.1,0.8,0.1c3.2,0,5.8-2.4,6.2-6C73.8,83.2,70.9,82.4,70.8,82.4z"></path></g></svg>
